<?xml version="1.0" encoding="UTF-8"?>
<svg id="_图层_1" data-name="图层 1" xmlns="http://www.w3.org/2000/svg" viewBox="0 0 200 58.14">
  <defs>
    <style>
      .cls-1, .cls-2 {
        fill: #fff;
      }

      .cls-2 {
        fill-rule: evenodd;
      }
    </style>
  </defs>
  <g id="logo-dark-bg">
    <g id="Group_146" data-name="Group 146">
      <path id="Path_534" data-name="Path 534" class="cls-2" d="m166.62,7.37c-.03.22-.12.43-.27.61.21-.02.42-.11.58-.25,0,.21-.16.31-.26.45.19-.06.37-.13.56-.18.26-.07.51-.14.77-.21.05-.01.1-.02.15-.02.32-.06.63.14.7.46.1.29.16.6.23.9.05.21.1.42.14.63.04.18.14.35.26.48.1.16.31.21.48.11.01,0,.02-.02.03-.02-.07.15-.21.25-.38.26-.11,0-.22,0-.32-.02-.17-.03-.17-.03-.25.15l.18.05c.36.08.59.45.51.81-.02.1-.07.19-.13.27-.04.06-.07.13-.09.2-.03.17-.12.33-.26.43.03.05.05.1.08.15.03.06.06.11.07.18.04.2.03.4.08.6.01.05,0,.1-.03.15-.08.13-.11.28-.09.43-.01.25-.08.49-.18.72-.03.07-.06.14-.09.23.3.1.59.21.89.3.87.25,1.73.5,2.6.75.14.04.29.04.43,0,.21-.07.43-.13.64-.2.05-.02.1-.05.14-.09.29-.26.6-.49.94-.67.18-.1.25-.09.37.08.05.09.14.15.24.14.13-.02.25.07.29.19.01,0,.03,0,.05,0,.24-.07.31-.04.39.19.04.13.07.27.09.41.37.08.7.27.95.55-.15.06-.33.06-.48,0-.11-.05-.22-.11-.32-.16-.06-.05-.14-.05-.19,0-.02.02-.05.04-.06.03-.16-.06-.26.06-.38.13-.08.05-.17.08-.26.11-.3.07-.59.17-.86.3-.27.15-.59.2-.9.15-.06,0-.11-.01-.17-.01-.43,0-.85-.04-1.27-.12-.9-.18-1.81-.33-2.72-.5-.54-.1-1.08-.21-1.63-.32-.08.09-.16.18-.3.13-.03,0-.07.04-.12.07l.11.13c-.15.44-.48.81-.91,1-.14.05-.29.08-.45.07-.08-.02-.15-.06-.2-.12-.27-.28-.5-.59-.68-.94-.02-.05-.05-.09-.07-.13-.08-.09-.08-.09-.09-.21-.08-.08-.19-.12-.31-.12-.07,0-.13-.03-.18-.07-.16-.17-.31-.35-.45-.54-.33-.52-.62-1.07-.85-1.64-.05-.12-.11-.23-.15-.35-.03-.1-.1-.19-.19-.24-.05-.04-.09-.1-.11-.17-.02-.08-.09-.14-.18-.15-.13-.01-.26-.04-.4-.05-.05,0-.09.03-.12.07-.43.56-.85,1.12-1.28,1.69-.16.21-.31.42-.47.63-.07.08-.1.19-.09.3.01.13,0,.25,0,.38v.65l-.42.13v1c.06-.06.09-.08.11-.11.07-.08.14-.17.2-.26.2-.29.48-.51.8-.66.42-.21.84-.39,1.26-.59.15-.07.31-.1.48-.08.48.06.97.1,1.46.16.09.01.19.04.28.07.29.09.33.16.29.46-.03.21-.06.43-.11.64-.08.39-.18.77-.26,1.15-.03.15-.04.32-.05.47-.02.18-.04.36-.06.56.08.03.15.06.23.09.67.27,1.3.6,1.9,1,.17.12.34.25.49.39.07.07.17.11.27.1.55-.03,1.09-.06,1.64-.08,1.1-.04,2.2-.03,3.3.05,1.21.07,2.4.21,3.6.39,1,.14,1.99.34,2.97.59.38.1.75.23,1.13.35.32.11.65.22.97.34.08.03.2.02.2.17,0,.06.22.1.36.08l-.03-.16-.24-.07c.04-.12.12-.12.2-.15.36-.1.72-.14,1.09-.13,1.03.02,2.06.1,3.08.24,1.01.14,1.99.42,2.92.83.12.05.24.1.37.15v-.03c-.22-.21-.2-.38.05-.55.37-.26.86-.27,1.24-.04.15.07.24.21.25.37l.17-.06c-.05-.17-.1-.32-.13-.47-.01-.07,0-.14,0-.21.02-.13.12-.22.25-.22.19-.01.37.03.53.13.27.15.5.37.65.63l.3-.35c.07.02.14.06.22.07.36.09.72.18,1.07.26.05,0,.1,0,.15,0,.05,0,.1,0,.15.02.17.08.33.18.5.27.02.01.03.04.04.05-.12.22-.34.23-.53.28-.33.11-.65.26-.94.45-.19.11-.38.2-.57.3-.08.03-.16.04-.24.06-.19.32-.51.53-.88.59-.14.03-.29.03-.43,0-.15-.01-.26-.14-.26-.28,0-.07-.02-.15-.03-.25-.21.27-.55.4-.88.36-.32-.05-.66-.1-.81-.49l-.48.27c-.17.1-.34.19-.52.26l.1-.19c-.26.02-.49.16-.63.38.17.08.29-.09.46-.08,0,.05-.02.1-.03.15-.11.31-.3.58-.56.78-.28.21-.58.39-.91.52-1.5.66-3.07,1.15-4.68,1.46-.86.14-1.73.18-2.6.11-.3-.02-.61-.06-.91-.1-.09-.02-.19-.04-.28-.07l.28-.15c-.15-.1-.34-.16-.52-.15-.03.15-.15.19-.27.22s-.26.08-.39.1c-.15.02-.27.11-.35.24-.09.14-.19.29-.28.43-.04.06-.09.12-.18.12s-.12.06-.13.14c-.03.12-.05.25-.08.39.25.34.32.78.18,1.18-.07.34-.19.66-.35.96-.34.65-.75,1.26-1.21,1.82-.09.1-.15.22-.19.35-.33.97-.77,1.91-1.3,2.79-.7,1.22-1.39,2.44-2.08,3.66-.24.43-.44.87-.61,1.33-.17.4-.13.86.11,1.22.1.16.2.32.32.47.2.27.48.46.8.56.61.21,1.24.37,1.88.48.66.09,1.32.21,1.97.36,1.48.3,2.91.77,4.28,1.42,1.3.63,2.46,1.54,3.38,2.65.37.44.67.93.9,1.46.08.15.11.32.09.49-.06.33-.07.67-.12,1-.05.37-.16.72-.31,1.06-.01.02-.03.04-.04.06-.02-.03-.04-.05-.04-.07,0-.38-.1-.76-.29-1.09-.56-1.08-1.32-2.03-2.25-2.81-.95-.79-1.98-1.47-3.08-2.03-.83-.44-1.7-.82-2.58-1.14-.93-.36-1.84-.78-2.71-1.26-.48-.27-.99-.5-1.51-.69-.56-.2-1.09-.45-1.6-.76-.13-.07-.25-.16-.36-.24-.45-.32-.66-.89-.51-1.42.09-.39.24-.75.46-1.08.15-.23.3-.46.47-.67.77-.99,1.55-1.96,2.31-2.96.73-.96,1.5-1.88,2.29-2.79.13-.15.22-.32.28-.51.14-.46.24-.93.3-1.4.07-.37.02-.75-.13-1.1-.01-.02-.03-.04-.04-.08-.05.03-.09.05-.13.07-.59.39-1.21.73-1.84,1.04-.06.03-.12.05-.18.07-.14.04-.17.03-.24-.1-.04-.07-.11-.11-.19-.1h-.25c.16.16.18.42.03.58-.1.17-.22.33-.35.47-.52.54-1.17.93-1.89,1.14-.23.09-.48.09-.71,0l-.03-.17-.19.05c.13.15.14.21.04.36-.08.12-.17.24-.27.35-.55.61-1.21,1.12-1.94,1.5-.19.1-.39.18-.6.24-.1.03-.21.03-.32.03-.09,0-.18-.05-.22-.13l.17-.18-.02-.03c-.18.04-.34.14-.46.26.08.02.14.03.19.05.13.04.16.12.09.23-.03.05-.07.09-.11.13-.7.66-1.63,1.03-2.59,1.04-.28,0-.56-.06-.81-.18-.02-.01-.05-.01-.1-.03,0,.07,0,.14.02.19.11.67.21,1.34.33,2.01.03.14.08.28.17.4.39.56.8,1.1,1.2,1.65.08.11.17.22.26.33.39.47.65,1.03.75,1.63.16.86.32,1.71.43,2.57.08.6.09,1.22.14,1.82.06.9.13,1.8.18,2.7.04.75.2,1.47.3,2.21.07.53.14,1.06.21,1.59,0,.08.02.15.04.22.08.22.1.46.06.7-.01.47-.06.94-.15,1.4-.06.32-.17.63-.31.92-.05.09-.12.18-.19.26-.05.06-.14.07-.21.02,0,0,0,0-.01-.01-.1-.07-.18-.16-.26-.25-.12-.19-.22-.38-.32-.59-.13-.29-.26-.58-.37-.88-.05-.12-.07-.24-.08-.37-.02-.4-.02-.8-.04-1.2-.01-.21-.06-.43-.09-.64-.05-.31-.1-.63-.14-.94-.08-.71-.16-1.43-.23-2.14,0-.06-.02-.11-.04-.17-.25-.88-.59-1.73-1.02-2.54-.16-.29-.3-.59-.45-.89-.48-.95-1.04-1.85-1.69-2.69-.42-.55-.81-1.12-1.23-1.68-.36-.48-.74-.95-1.09-1.44-.19-.25-.39-.48-.6-.71-.25-.28-.42-.62-.52-.99-.06-.23-.16-.44-.29-.64-.11-.18-.21-.36-.31-.55-.26-.49-.51-.98-.76-1.47-.04-.07-.07-.13-.11-.21-.2.06-.42-.03-.63.07.04.1.09.2.12.3.13.36.22.75.25,1.13.05.61.09,1.22.11,1.83.02.5-.03.99-.15,1.48-.01.07,0,.14.02.2.12.25.2.52.24.8.02.09.05.17.1.25.39.71.67,1.47.82,2.27.02.11.02.23.04.38.19-.16.47-.14.63.05h0c.33.24.5.66.42,1.06-.01.14-.09.26-.22.33l.13.15c.05-.05.08-.09.11-.13.11-.13.26-.23.43-.28.14-.06.29,0,.35.14,0,0,0,.01,0,.02.09.21.11.45.06.67-.04.24-.14.47-.28.67l.43.12c.07.39.15.77.22,1.16.04.24.08.49.12.73.03.11,0,.23-.06.33-.09-.02-.18-.07-.23-.15-.28-.34-.61-.64-.97-.89-.03-.02-.06-.04-.09-.07-.11-.19-.29-.33-.5-.39-.06-.15-.2-.1-.31-.13-.39-.1-.71-.37-.88-.73-.11-.19-.05-.43.14-.55.02-.01.05-.03.08-.04l.13-.07c-.31-.07-.56-.28-.69-.57-.13-.29-.14-.62-.03-.92-.07-.06-.14-.14-.23-.2-.74-.53-1.48-1.05-2.21-1.6-.55-.41-1.06-.87-1.6-1.3l-.18-.14c.01.1.02.16.03.22.1.46-.05.95-.4,1.27-.17.19-.36.36-.55.53-.42.33-.85.64-1.29.94-.45.32-.92.62-1.38.93-.42.29-.84.57-1.26.86-.42.31-.82.64-1.2,1-1.21,1.07-2.27,2.31-3.13,3.67-.39.58-.71,1.21-.96,1.86-.02-.09-.03-.18,0-.26.08-.93.26-1.84.54-2.72.09-.28.19-.55.25-.84.04-.17.13-.33.26-.44,1.06-1.12,2.26-2.1,3.57-2.9,1.4-.87,2.86-1.63,4.38-2.26.1-.05.2-.08.3-.11.1-.02.18-.1.21-.2.24-.54.24-1.16.03-1.71-.07-.19-.16-.37-.24-.56-.01-.03-.03-.06-.05-.08-.24-.23-.48-.47-.72-.7-.02-.02-.05-.04-.07-.06-.54-.66-1.09-1.31-1.62-1.97-.63-.77-1.12-1.64-1.45-2.58-.03-.11-.11-.21-.22-.25-.77-.29-1.5-.65-2.2-1.09-.33-.19-.67-.36-1.03-.49-.98-.34-1.89-.87-2.67-1.56-.31-.27-.58-.58-.8-.92-.21-.31-.35-.67-.42-1.04-.05-.23-.02-.47.09-.69.32-.63.76-1.19,1.3-1.65.25-.22.53-.42.79-.63.11-.08.2-.17.29-.27.43-.48.91-.92,1.44-1.31,1.29-.96,2.69-1.74,4.18-2.34,1.34-.55,2.69-1.1,4.08-1.54.17-.05.33-.13.5-.19.09-.02.15-.11.13-.2,0-.3.11-.59.32-.81-.1-.19.06-.29.15-.42l-.07-.18-.1.07c-.65.42-1.3.84-1.95,1.27-.2.13-.45.19-.69.15-.07,0-.14-.01-.21-.02-.07.14-.03.31-.18.42-.14-.13-.05-.32-.17-.49-.02.05-.04.1-.06.15-.03.12-.04.25-.07.38-.03.15-.04.15-.21.14l-.15.27c-.16-.27-.11-.56-.27-.79l-.24.07c-.04.11-.07.21-.11.31-.04.09-.09.17-.15.24-.02.03-.08.03-.12.04-.02-.04-.03-.08-.03-.12,0-.17.02-.34,0-.51s-.04-.33.09-.47c.04-.06.06-.12.08-.19.05-.11.09-.22.15-.33.09-.18.1-.16.3-.14.28.02.56.02.84.03.16,0,.32-.01.48,0,.14,0,.28-.04.38-.13.58-.49,1.16-.97,1.73-1.46.21-.18.4-.39.59-.59.12-.09.2-.24.2-.39,0-.03.03-.06.06-.11-.03-.05-.07-.1-.11-.15-.16-.18-.32-.36-.48-.53-.23.06-.39-.06-.35-.28.01-.08,0-.16-.06-.23-.09-.18-.18-.36-.27-.55-.02-.04-.03-.08-.03-.13-.03-.19-.03-.21.16-.3.65-.32,1.35-.53,2.08-.6-.02-.07-.04-.15-.05-.23s-.03-.18-.04-.26c-.04-.16.01-.32.14-.42.2-.19.39-.4.58-.62-.24-.18-.23-.44-.23-.7-.1.1-.18.18-.27.27-.02.02-.03.04-.03.07-.01.22-.12.42-.3.54.13.08.29.09.43.03-.16.17-.38.28-.62.31-.25.02-.49-.08-.66-.26.04.19.11.36.21.52-.05-.02-.1-.04-.15-.07-.36-.25-.6-.64-.67-1.07-.02-.14-.07-.28-.13-.41-.14-.33-.04-.72.25-.94.05-.04.1-.08.14-.12-.34.02-.68.12-.97.29-.06-.08-.04-.19.04-.24,0,0,.01,0,.02-.01.09-.07.19-.12.3-.16.2-.05.4-.09.6-.12.21-.03.43-.04.64-.07.1,0,.2-.05.26-.13-.23-.09-.43-.25-.56-.45-.14-.13-.14-.34-.01-.47,0,0,0,0,0,0,.2-.28.45-.51.74-.68l.21-.12c-.04-.28.04-.56.23-.77.22-.34.5-.63.82-.86.2-.14.4-.3.57-.48.3-.3.47-.71.45-1.14,0-.06-.02-.12-.04-.18l-1.23.93c.05-.17.12-.34.22-.49.08-.16.16-.32.25-.5-.35.07-.71.11-1.07.1.03-.03.05-.06.07-.07.4-.25.79-.53,1.16-.83.06-.05.09-.13.06-.2-.08-.55-.04-1.11.12-1.64.15-.56.46-1.07.88-1.47.03-.02.05-.04.08-.05-.17-.32-.17-.7,0-1.01.16-.38.42-.71.75-.97.61-.5,1.35-.83,2.13-.97.93-.18,1.89-.12,2.78.18.66.24,1.26.62,1.76,1.11.5.46.9,1.02,1.17,1.65.19.49.28,1.01.27,1.53-.01.14.06.28.18.36.41.3.84.57,1.3.79.09.04.17.09.25.15-.42.03-.84.02-1.26-.04v.72c-.28-.15-.53-.34-.75-.57l-.48.67c.1.06.22.11.33.17.61.32,1.27.56,1.94.71.21.05.21.04.33-.15.11-.22.13-.48.06-.72.16.1.28.26.33.45.03.08.06.16.1.25h0Zm-16.83,17.38l-.03-.03s-.06.01-.09.02c-1.83.6-3.64,1.25-5.42,1.97-1.07.43-2.09.95-3.08,1.55-.08.05-.16.1-.22.18-.57.69-.97,1.5-1.15,2.38-.16.69.03,1.42.51,1.95.78.86,1.66,1.61,2.63,2.25.09.05.18.09.28.12.75.23,1.52.4,2.3.51.04,0,.09,0,.13,0,0-.05-.01-.08-.02-.11-.07-.43-.09-.86-.07-1.29.04-.65.15-1.29.34-1.91.8-2.68,2.07-5.2,3.75-7.43.04-.06.08-.12.12-.17h0Zm10.29-6.53c.12.13.23.23.33.34.05.05.11.08.18.07.67,0,1.35.09,1.99.28.08.02.16.03.24.04l.6.09.14.02c.14-.57.34-1.12.6-1.64l-.79-.57c-1.15.33-2.25.79-3.3,1.37h0Zm4.64,3.27c-.02-.08,0-.14.09-.15.23-.03.46-.08.7-.11.37-.04.73-.07,1.1-.1.09,0,.18-.02.27-.03-.04-.05-.09-.08-.15-.1-.32-.09-.65-.19-.97-.27-.47-.12-.95-.22-1.42-.35-.14-.04-.24-.05-.33.08.04.19.13.39-.06.57l.54.3-.12.05c.1.09.23.13.36.1h0Zm2.04-9.9c-.06.22-.02.28.2.33.12.03.25.06.37.08.27.01.53.15.68.38.18-.05.17-.05.21-.18.03-.09.07-.18.1-.26.06-.14.12-.28.16-.43.06-.16-.01-.34-.17-.41-.06-.03-.13-.03-.2-.01-.09,0-.18.03-.26.06-.24.09-.47.19-.7.28l-.39.16Zm-12.76,8.55c-.14.05-.27.1-.39.13-.16.03-.27.16-.28.32,0,.24-.1.47-.28.62-.23.22-.54.35-.86.37-.03,0-.07,0-.1.01-.05.18-.02.37.07.53.12-.1.24-.21.36-.31s.25-.21.38-.31.25-.2.38-.29.27-.19.41-.28c.13-.07.26-.15.38-.25l-.02-.04h-.32l.25-.51Zm11.64-12.26c-.49-.42-1.11-.66-1.76-.68.03.04.06.09.1.13.25.23.5.47.76.69.08.06.18.09.28.09.22-.02.43-.1.62-.22Zm-11.41,1.67v-.04s-.71.18-.71.18c-.12.03-.2.13-.2.25-.01.19.03.38.11.54l.48-.2c-.08-.07-.16-.14-.23-.22-.13-.16-.12-.23.07-.32.16-.08.32-.14.47-.21h0Zm7.47,10.39l1.06.41.23-.28c-.42-.12-.86-.17-1.29-.14h0Zm-7.32-10.09l-.03-.04-.39.08v.04l.29.14.12-.22Z"/>
    </g>
    <g id="Group_152" data-name="Group 152">
      <g id="Group_149" data-name="Group 149">
        <rect id="Rectangle_31" data-name="Rectangle 31" class="cls-1" x="5.33" y="45.06" width="148.77" height=".65"/>
      </g>
      <g id="Group_150" data-name="Group 150">
        <rect id="Rectangle_32" data-name="Rectangle 32" class="cls-1" x="2.3" y="44.03" width="2.72" height="2.72" transform="translate(-31.02 15.88) rotate(-45)"/>
        <rect id="Rectangle_33" data-name="Rectangle 33" class="cls-1" x=".39" y="44.44" width="1.9" height="1.9" transform="translate(-31.7 14.24) rotate(-45)"/>
      </g>
      <g id="Group_151" data-name="Group 151">
        <rect id="Rectangle_34" data-name="Rectangle 34" class="cls-1" x="153.72" y="44.03" width="2.72" height="2.72" transform="translate(13.33 122.95) rotate(-45)"/>
        <rect id="Rectangle_35" data-name="Rectangle 35" class="cls-1" x="156.44" y="44.44" width="1.9" height="1.9" transform="translate(14.01 124.59) rotate(-45)"/>
      </g>
    </g>
    <g id="Group_155" data-name="Group 155">
      <g id="Group_154" data-name="Group 154">
        <path id="Path_584" data-name="Path 584" class="cls-1" d="m66.14,53.17l-.15-.02c-.21,0-.31.12-.31.37v1.24h.55v.23h-.55v2.07h-.23v-2.07h-.31v-.23h.31v-1.31c-.04-.26.14-.49.4-.53.04,0,.09,0,.13,0,.05,0,.1,0,.16.01.05,0,.1.02.15.04v.23l-.15-.03Z"/>
        <path id="Path_585" data-name="Path 585" class="cls-1" d="m66.73,54.35s-.09-.02-.13-.05c-.03-.04-.05-.08-.06-.13,0-.1.06-.16.18-.18.09,0,.15.06.18.18.01.09-.05.17-.14.18-.02,0-.03,0-.05,0Zm-.12,2.71v-2.3h.23v2.3h-.23Z"/>
        <path id="Path_586" data-name="Path 586" class="cls-1" d="m67.44,57.06v-4.12h.22v4.12h-.22Z"/>
        <path id="Path_587" data-name="Path 587" class="cls-1" d="m68.21,57.06v-4.12h.22v4.12h-.22Z"/>
        <path id="Path_588" data-name="Path 588" class="cls-1" d="m69.32,55.86c-.01.27.08.53.25.74.19.19.45.29.72.28.15,0,.29-.02.42-.08.18-.09.33-.23.43-.41l.21.09c-.14.27-.38.47-.67.56-.13.04-.26.06-.39.06-.67,0-1.2-.56-1.19-1.22,0-.31.12-.6.33-.82.23-.23.54-.35.86-.34.31-.01.62.1.85.32.23.21.35.51.34.82h-2.16Zm1.57-.73c-.17-.13-.38-.19-.6-.19-.44-.03-.84.27-.94.7h1.87c-.04-.21-.16-.39-.33-.51h0Z"/>
        <path id="Path_589" data-name="Path 589" class="cls-1" d="m74.05,57.06v-.41c-.22.29-.57.46-.94.45-.65,0-1.19-.53-1.19-1.18,0-.65.53-1.19,1.18-1.19h0c.36,0,.71.16.94.45v-2.24h.23v4.12h-.23Zm-.26-1.83c-.38-.37-.98-.37-1.36,0s-.37.98,0,1.36c.38.37.98.37,1.36,0,.18-.18.28-.42.28-.68,0-.26-.1-.5-.29-.68h0Z"/>
        <path id="Path_590" data-name="Path 590" class="cls-1" d="m78.77,57.16l-.72-1.84-.73,1.84-1.03-2.4h.24l.78,1.78.74-1.85.73,1.85.77-1.78h.26l-1.04,2.4Z"/>
        <path id="Path_591" data-name="Path 591" class="cls-1" d="m80.52,54.35s-.09-.02-.13-.05c-.03-.04-.05-.08-.06-.13,0-.1.06-.16.18-.18.09,0,.15.06.18.18.01.09-.05.17-.14.18-.02,0-.03,0-.05,0Zm-.12,2.71v-2.3h.23v2.3h-.23Z"/>
        <path id="Path_592" data-name="Path 592" class="cls-1" d="m81.79,54.99v2.07h-.23v-2.07h-.31v-.23h.31v-1.01h.23v1.01h.53v.23h-.53Z"/>
        <path id="Path_593" data-name="Path 593" class="cls-1" d="m84.53,57.06v-1.38c0-.49-.23-.73-.68-.73-.17,0-.34.06-.48.17-.14.11-.21.27-.21.45v1.5h-.23v-4.12h.23v2.12c.15-.23.41-.36.68-.34.44-.06.85.25.91.7.01.08,0,.15,0,.23v1.41h-.23Z"/>
        <path id="Path_594" data-name="Path 594" class="cls-1" d="m88.1,56.91c-.15.13-.34.19-.53.19-.34,0-.65-.18-.8-.48l.2-.12c.05.11.13.2.23.27.11.08.24.11.38.11.35,0,.52-.15.52-.45,0-.14-.07-.26-.18-.34-.05-.03-.1-.05-.16-.08-.07-.03-.15-.06-.25-.1-.14-.05-.28-.11-.4-.2-.12-.1-.19-.26-.18-.42,0-.15.06-.3.18-.4.12-.12.28-.18.45-.17.24,0,.48.09.65.27l-.17.15c-.13-.13-.3-.2-.48-.19-.27,0-.4.12-.4.35,0,.1.04.2.12.26.1.07.2.12.32.15.11.04.21.08.31.12.06.03.13.06.18.1.16.12.25.3.24.5,0,.19-.08.37-.23.48Z"/>
        <path id="Path_595" data-name="Path 595" class="cls-1" d="m90.73,56.75c-.47.46-1.23.44-1.68-.03-.44-.46-.45-1.19,0-1.65.22-.23.52-.36.84-.35.66.01,1.19.56,1.18,1.22,0,.3-.12.59-.33.81Zm-.16-1.52c-.18-.19-.43-.29-.69-.28-.26,0-.5.1-.67.29-.37.38-.36.98.01,1.35s.98.36,1.35-.01c.37-.37.36-.97,0-1.34h0Z"/>
        <path id="Path_596" data-name="Path 596" class="cls-1" d="m93.16,56.85c-.17.17-.4.26-.64.24-.23.01-.46-.07-.63-.24-.16-.19-.24-.42-.22-.67v-1.43h.23v1.43c-.01.18.04.36.15.51.12.13.3.19.48.18.43,0,.64-.23.64-.68v-1.43h.22v1.43c.01.24-.07.48-.22.66Z"/>
        <path id="Path_597" data-name="Path 597" class="cls-1" d="m95.69,57.06v-1.37c0-.49-.22-.73-.66-.73-.18-.01-.36.06-.49.19-.12.14-.18.33-.17.52v1.4h-.23v-2.3h.23v.28c.14-.22.4-.34.66-.31.24-.02.48.07.66.24.16.19.24.44.23.68v1.4h-.23Z"/>
        <path id="Path_598" data-name="Path 598" class="cls-1" d="m98.71,57.06v-.41c-.22.29-.57.46-.94.45-.65,0-1.19-.53-1.19-1.18s.53-1.19,1.18-1.19h0c.36,0,.71.16.94.45v-2.24h.23v4.12h-.23Zm-.26-1.83c-.38-.37-.98-.37-1.36,0-.37.38-.37.98,0,1.36.38.37.98.37,1.36,0,.18-.18.28-.42.28-.68,0-.26-.1-.5-.28-.68h0Z"/>
        <path id="Path_599" data-name="Path 599" class="cls-1" d="m99.77,55.45s-.09-.02-.13-.05c-.03-.04-.05-.08-.06-.13,0-.1.06-.16.18-.18.09,0,.15.06.18.18.01.09-.05.17-.14.18-.02,0-.03,0-.05,0Zm0,1.64s-.09-.02-.13-.05c-.03-.04-.05-.08-.06-.13,0-.1.06-.16.18-.18.09,0,.15.06.18.18.01.09-.05.17-.14.18-.02,0-.03,0-.05,0Z"/>
        <path id="Path_600" data-name="Path 600" class="cls-1" d="m104.05,57.06v-.4c-.41.51-1.16.58-1.67.17-.51-.41-.58-1.16-.17-1.67.41-.51,1.16-.58,1.67-.17.06.05.12.11.17.17v-.4h.23v2.3h-.23Zm-.24-1.83c-.38-.37-.98-.37-1.36,0-.37.38-.37.98,0,1.36.38.37.98.37,1.36,0,.18-.18.28-.42.28-.68,0-.26-.1-.5-.29-.68h0Z"/>
        <path id="Path_601" data-name="Path 601" class="cls-1" d="m108.5,56.75c-.47.47-1.23.46-1.7-.01-.03-.04-.07-.07-.1-.11v1.51h-.23v-3.38h.23v.43c.22-.3.57-.48.95-.47.66,0,1.19.54,1.19,1.2,0,.31-.12.61-.34.83h0Zm-.17-1.52c-.38-.37-.98-.37-1.36,0-.37.38-.37.98,0,1.36.38.37.98.37,1.36,0,.18-.18.28-.42.28-.68,0-.26-.1-.5-.28-.68Z"/>
        <path id="Path_602" data-name="Path 602" class="cls-1" d="m111.33,57.06v-.4c-.41.51-1.16.58-1.67.17-.51-.41-.58-1.16-.17-1.67.41-.51,1.16-.58,1.67-.17.06.05.12.11.17.17v-.4h.23v2.3h-.23Zm-.24-1.83c-.38-.37-.98-.37-1.36,0-.37.38-.37.98,0,1.36.38.37.98.37,1.36,0,.18-.18.28-.42.28-.68,0-.26-.1-.5-.28-.68Z"/>
        <path id="Path_603" data-name="Path 603" class="cls-1" d="m113.43,56.91c-.15.13-.34.19-.54.19-.34,0-.65-.18-.8-.48l.19-.12c.05.11.13.2.23.27.11.08.24.11.38.11.35,0,.52-.15.52-.45,0-.14-.07-.26-.18-.34-.05-.03-.1-.05-.16-.08-.07-.03-.15-.06-.25-.1-.14-.05-.28-.11-.4-.2-.12-.1-.19-.26-.18-.42,0-.15.06-.3.18-.4.12-.12.28-.18.45-.17.24,0,.48.09.65.27l-.17.15c-.13-.13-.3-.2-.48-.19-.27,0-.4.12-.4.35,0,.1.04.19.12.26.1.07.2.12.32.15.11.04.21.08.31.12.06.03.13.06.18.1.16.12.25.3.24.5,0,.19-.08.36-.22.48Z"/>
        <path id="Path_604" data-name="Path 604" class="cls-1" d="m114.54,54.99v2.07h-.23v-2.07h-.31v-.23h.31v-1.01h.23v1.01h.54v.23h-.54Z"/>
        <path id="Path_605" data-name="Path 605" class="cls-1" d="m117.47,54.99v2.07h-.23v-2.07h-.31v-.23h.31v-1.01h.23v1.01h.54v.23h-.54Z"/>
        <path id="Path_606" data-name="Path 606" class="cls-1" d="m120.17,56.75c-.47.46-1.23.44-1.68-.03-.44-.46-.45-1.19,0-1.65.22-.23.52-.36.84-.35.66.01,1.19.56,1.18,1.22,0,.3-.12.59-.33.81Zm-.16-1.52c-.18-.19-.43-.29-.69-.28-.26,0-.5.1-.67.29-.37.38-.36.98.01,1.35.38.37.98.36,1.35-.01.37-.37.36-.97,0-1.34h0Z"/>
        <path id="Path_607" data-name="Path 607" class="cls-1" d="m124.57,56.75c-.47.47-1.23.46-1.7-.01-.03-.03-.06-.07-.09-.1v.42h-.23v-4.12h.23v2.25c.4-.52,1.15-.62,1.67-.22.52.4.62,1.15.22,1.67-.03.04-.06.08-.1.11h0Zm-.17-1.52c-.38-.37-.98-.37-1.36,0-.37.38-.37.98,0,1.36.38.37.98.37,1.36,0,.18-.18.28-.42.28-.68,0-.26-.1-.5-.29-.68h0Z"/>
        <path id="Path_608" data-name="Path 608" class="cls-1" d="m125.6,55.86c-.01.27.08.53.25.74.19.19.45.29.72.28.14,0,.29-.02.42-.08.18-.09.33-.23.43-.41l.21.09c-.14.27-.38.47-.67.56-.13.04-.26.06-.39.06-.67,0-1.2-.56-1.19-1.22,0-.31.12-.6.33-.82.23-.23.54-.35.86-.34.31-.01.62.1.85.32.23.21.35.51.34.82h-2.16Zm1.57-.73c-.17-.13-.38-.19-.6-.19-.44-.03-.84.27-.94.7h1.87c-.04-.21-.16-.39-.33-.51h0Z"/>
        <path id="Path_609" data-name="Path 609" class="cls-1" d="m131.28,56.85c-.17.17-.4.26-.64.24-.23.01-.46-.07-.63-.24-.16-.19-.24-.42-.22-.67v-1.43h.23v1.43c-.01.18.04.36.15.51.12.13.3.19.48.18.43,0,.64-.23.64-.68v-1.43h.22v1.43c.01.24-.07.48-.22.66Z"/>
        <path id="Path_610" data-name="Path 610" class="cls-1" d="m133.81,57.06v-1.37c0-.49-.22-.73-.66-.73-.18-.01-.36.06-.49.19-.12.14-.18.33-.17.52v1.4h-.23v-2.3h.23v.28c.14-.22.4-.34.66-.31.24-.02.48.07.66.24.16.19.24.43.23.68v1.4h-.23Z"/>
        <path id="Path_611" data-name="Path 611" class="cls-1" d="m135.92,57.1c-.66.02-1.21-.5-1.23-1.16-.02-.66.5-1.21,1.16-1.23.02,0,.05,0,.07,0,.25-.01.5.06.7.2v.27l-.15-.09-.16-.08c-.13-.05-.26-.07-.4-.07-.53,0-.97.43-.97.96,0,.53.43.97.96.97h.01c.26,0,.51-.09.7-.27v.28c-.21.14-.45.21-.7.21Z"/>
        <path id="Path_612" data-name="Path 612" class="cls-1" d="m138.84,56.75c-.46.47-1.22.47-1.68,0-.47-.46-.47-1.22,0-1.68.22-.23.52-.36.84-.35.66.01,1.19.56,1.18,1.22,0,.3-.12.59-.33.81h0Zm-.16-1.52c-.38-.38-.99-.39-1.38-.01-.38.38-.39.99-.01,1.38.38.38.99.39,1.38.01.19-.18.29-.43.29-.69,0-.26-.09-.51-.28-.69h0Z"/>
        <path id="Path_613" data-name="Path 613" class="cls-1" d="m140.38,57.16l-1.09-2.4h.24l.84,1.83.84-1.83h.26l-1.09,2.4Z"/>
        <path id="Path_614" data-name="Path 614" class="cls-1" d="m142.04,55.86c-.01.27.08.53.25.74.19.19.45.29.72.28.14,0,.29-.02.42-.08.18-.09.33-.23.43-.41l.21.09c-.14.27-.38.47-.67.56-.13.04-.26.06-.39.06-.67,0-1.2-.56-1.19-1.22,0-.31.12-.6.33-.82.23-.23.54-.35.86-.34.31-.01.62.1.85.32.23.21.35.51.34.82h-2.16Zm1.57-.73c-.17-.13-.38-.19-.6-.19-.44-.03-.84.27-.94.7h1.87c-.04-.21-.16-.39-.33-.51h0Z"/>
        <path id="Path_615" data-name="Path 615" class="cls-1" d="m145.87,55.1c-.06-.04-.12-.08-.19-.11-.07-.03-.14-.04-.21-.04-.06,0-.13.02-.18.06-.06.04-.11.09-.15.15-.04.06-.08.12-.1.19-.02.06-.03.13-.04.2v1.51h-.23v-2.3h.23v.31c.05-.09.11-.17.19-.23.07-.07.16-.1.26-.11.1,0,.19.01.28.04.09.03.17.08.25.14l-.12.19Z"/>
        <path id="Path_616" data-name="Path 616" class="cls-1" d="m146.28,55.86c-.01.27.08.53.25.74.19.19.45.29.72.28.14,0,.29-.02.42-.08.18-.09.33-.23.43-.41l.21.09c-.14.27-.38.47-.67.56-.13.04-.26.06-.39.06-.67,0-1.2-.56-1.19-1.22,0-.31.12-.6.33-.82.23-.23.54-.35.86-.34.31-.01.62.1.85.32.23.21.35.51.34.82h-2.16Zm1.57-.73c-.17-.13-.38-.19-.6-.19-.44-.03-.84.27-.94.7h1.87c-.04-.21-.16-.39-.33-.51h0Z"/>
        <path id="Path_617" data-name="Path 617" class="cls-1" d="m151.01,57.06v-.41c-.22.29-.57.46-.94.45-.65,0-1.19-.53-1.19-1.18s.53-1.19,1.18-1.19h0c.36,0,.71.16.94.45v-2.24h.23v4.12h-.23Zm-.26-1.83c-.38-.37-.98-.37-1.36,0-.37.38-.37.98,0,1.36.38.37.98.37,1.36,0,.18-.18.28-.42.28-.68,0-.26-.1-.5-.28-.68h0Z"/>
      </g>
    </g>
  </g>
  <g>
    <rect id="Rectangle_30" data-name="Rectangle 30" class="cls-1" x="105.45" y="10.35" width="4.62" height="31.73"/>
    <path id="Path_536" data-name="Path 536" class="cls-1" d="m118.75,10.35l6.91,5.75v-5.75h-6.91Z"/>
    <path id="Path_537" data-name="Path 537" class="cls-1" d="m120.81,26.21v-3.67l-4.42,3.67,4.42,3.67v-3.67Z"/>
    <path id="Path_538" data-name="Path 538" class="cls-1" d="m15.81,42.1c-2.75-1.05-5.14-2.88-6.87-5.25-2.16-2.7-3.23-6.23-3.23-10.61s1.08-7.92,3.23-10.61c1.73-2.38,4.12-4.2,6.87-5.26-1.67,1.9-2.94,4.12-3.74,6.52-1.75,6.11-1.75,12.59,0,18.7.8,2.4,2.07,4.61,3.74,6.52Z"/>
    <path id="Path_542" data-name="Path 542" class="cls-1" d="m79.95,42.1h1.57l8.88-26.06,8.86,26.06h4.67l-10.8-31.78h-2.45l-10.73,31.78Z"/>
    <path id="Path_543" data-name="Path 543" class="cls-1" d="m127.42,42.1h1.57l8.88-26.06,8.86,26.06h4.67l-10.8-31.78h-2.45l-10.73,31.78Z"/>
    <path id="Path_545" data-name="Path 545" class="cls-1" d="m30.77,30.91l-5.75-7.04h5.75v7.04Z"/>
    <path id="Path_544" data-name="Path 544" class="cls-1" d="m118.75,42.1l6.91-5.75v5.75h-6.91Z"/>
    <path id="Path_545-2" data-name="Path 545" class="cls-1" d="m23.85,42.08l6.91-5.86v5.86h-6.91Z"/>
    <path id="Path_546" data-name="Path 546" class="cls-1" d="m23.72,10.34l6.91,5.86v-5.86h-6.91Z"/>
    <path id="Path_545-3" data-name="Path 545" class="cls-1" d="m39.21,10.32l-6.91,7.72v-7.72h6.91Z"/>
    <path id="Path_545-4" data-name="Path 545" class="cls-1" d="m50.3,10.32l6.91,7.72v-7.72s-6.91,0-6.91,0Z"/>
  </g>
  <path class="cls-1" d="m41.72,42.1c-6.26-1.31-9.39-4.74-9.39-10.28V12.65c0-1.56-.78-2.34-2.34-2.34h9.35c-1.56,0-2.34.78-2.34,2.34v19.16c0,5.55,1.57,8.97,4.72,10.28Zm8.88-31.78h4.67c-1.5,0-2.27.78-2.34,2.34-.06-1.56-.84-2.34-2.34-2.34Z"/>
  <path class="cls-1" d="m67.49,42.1c1.56,0,2.34-.78,2.34-2.34v-13.56l-7.01-13.56c-.93-1.56-2.18-2.34-3.74-2.34h9.35c-.97,0-1.46.3-1.47.91,0,.36.18.83.54,1.43l7.01,13.56v13.56c0,1.56.78,2.34,2.34,2.34h-9.35Zm13.09-31.79h4.67c-1.5,0-2.74.78-3.74,2.34.33-.58.49-1.04.49-1.4,0-.62-.48-.93-1.43-.93Z"/>
  <rect class="cls-1" x="77.17" y="9.68" width="1.42" height="18.45" transform="translate(16.58 -32.71) rotate(26.45)"/>
  <g>
    <path class="cls-1" d="m71.43,50.79c-.38.38-.87.57-1.46.57s-1.08-.19-1.46-.56c-.38-.38-.57-.87-.57-1.46s.19-1.08.56-1.46c.38-.38.87-.57,1.46-.57s1.08.19,1.46.56c.38.38.57.87.57,1.46s-.19,1.08-.57,1.46Zm-.16-2.75c-.34-.34-.77-.51-1.3-.51s-.95.17-1.29.51c-.34.34-.51.77-.51,1.3s.17.96.5,1.29c.34.34.77.51,1.3.51s.96-.17,1.3-.5c.33-.33.5-.77.5-1.3s-.17-.96-.5-1.3Z"/>
    <path class="cls-1" d="m74.09,51.3v-1.36c0-.48-.22-.72-.65-.72-.21,0-.37.06-.49.19-.11.13-.17.3-.17.51v1.38h-.23v-2.28h.23v.28c.1-.2.32-.3.66-.3.28,0,.5.08.65.24.15.16.23.39.23.68v1.38h-.23Z"/>
    <path class="cls-1" d="m75.09,50.11c0,.31.08.55.25.73.17.18.41.28.71.28.15,0,.29-.03.42-.08.16-.07.3-.2.42-.4l.2.09c-.14.27-.36.46-.66.55-.11.04-.24.06-.39.06-.34,0-.62-.11-.84-.34-.22-.22-.34-.51-.34-.84s.11-.62.33-.84c.22-.22.51-.34.85-.34s.62.11.84.31c.22.21.34.48.34.82h-2.13Zm1.56-.72c-.17-.12-.37-.19-.6-.19-.47,0-.78.23-.93.69h1.85c-.04-.21-.15-.38-.33-.51Z"/>
    <path class="cls-1" d="m79.57,52.37h-.25l.59-1.28-.96-2.07h.24l.85,1.8.84-1.8h.25l-1.56,3.35Z"/>
    <path class="cls-1" d="m83.18,51c-.23.23-.51.34-.84.34s-.61-.11-.83-.34c-.23-.23-.34-.51-.34-.84s.11-.6.34-.83c.22-.23.5-.35.83-.35s.6.11.83.34.34.51.34.84-.11.61-.34.83Zm-.16-1.51c-.18-.19-.41-.28-.68-.28s-.48.1-.67.29c-.19.19-.29.42-.29.67s.09.49.28.67c.19.19.41.28.67.28s.49-.09.67-.28c.19-.19.28-.41.28-.68s-.09-.49-.28-.68Z"/>
    <path class="cls-1" d="m85.54,51.1c-.15.16-.36.24-.63.24s-.48-.08-.62-.24-.22-.38-.22-.66v-1.42h.23v1.42c0,.22.05.38.14.5.1.12.26.18.47.18.42,0,.63-.23.63-.68v-1.42h.22v1.42c0,.28-.07.5-.22.66Z"/>
    <path class="cls-1" d="m87.99,51.3v-1.36c0-.48-.22-.72-.65-.72-.21,0-.37.06-.49.19-.11.13-.17.3-.17.51v1.38h-.23v-2.28h.23v.28c.1-.2.32-.3.66-.3.28,0,.5.08.65.24.15.16.23.39.23.68v1.38h-.23Z"/>
    <path class="cls-1" d="m90.77,52.06c-.21.21-.48.31-.81.31-.62,0-.99-.24-1.11-.73h.23c.04.18.16.31.35.4.15.07.33.1.54.1.28,0,.5-.08.66-.24.16-.16.24-.38.24-.66v-.34c-.24.29-.54.43-.91.43-.33,0-.61-.11-.83-.34-.23-.23-.34-.51-.34-.84s.11-.61.34-.83c.23-.23.51-.34.84-.34.36,0,.67.14.91.43v-.4h.23v2.23c0,.33-.1.6-.31.81Zm-.15-2.57c-.19-.19-.41-.28-.67-.28s-.49.09-.67.28c-.19.19-.28.41-.28.68s.09.49.28.67c.19.19.41.28.67.28s.49-.09.67-.28c.19-.19.28-.41.28-.68s-.09-.49-.28-.67Z"/>
    <path class="cls-1" d="m94.99,52.06c-.21.21-.48.31-.81.31-.62,0-.99-.24-1.11-.73h.23c.04.18.16.31.35.4.15.07.33.1.54.1.28,0,.5-.08.66-.24.16-.16.24-.38.24-.66v-.34c-.24.29-.54.43-.91.43-.33,0-.61-.11-.83-.34-.23-.23-.34-.51-.34-.84s.11-.61.34-.83c.23-.23.51-.34.84-.34.36,0,.67.14.91.43v-.4h.23v2.23c0,.33-.1.6-.31.81Zm-.15-2.57c-.19-.19-.41-.28-.67-.28s-.49.09-.67.28c-.19.19-.28.41-.28.68s.09.49.28.67c.19.19.41.28.67.28s.49-.09.67-.28c.19-.19.28-.41.28-.68s-.09-.49-.28-.67Z"/>
    <path class="cls-1" d="m97.42,51.1c-.15.16-.36.24-.63.24s-.48-.08-.62-.24-.22-.38-.22-.66v-1.42h.23v1.42c0,.22.05.38.14.5.1.12.26.18.47.18.42,0,.63-.23.63-.68v-1.42h.22v1.42c0,.28-.07.5-.22.66Z"/>
    <path class="cls-1" d="m98.75,52.37h-.25l.59-1.28-.96-2.07h.24l.85,1.8.84-1.8h.25l-1.56,3.35Z"/>
    <path class="cls-1" d="m102.07,50.11c0,.31.08.55.25.73.17.18.41.28.71.28.15,0,.29-.03.42-.08.16-.07.3-.2.42-.4l.2.09c-.14.27-.36.46-.66.55-.11.04-.24.06-.39.06-.34,0-.62-.11-.84-.34-.22-.22-.34-.51-.34-.84s.11-.62.33-.84c.22-.22.51-.34.85-.34s.62.11.84.31c.22.21.34.48.34.82h-2.13Zm1.56-.72c-.17-.12-.37-.19-.6-.19-.47,0-.78.23-.93.69h1.85c-.04-.21-.15-.38-.33-.51Z"/>
    <path class="cls-1" d="m105.71,51.3l-.65-.95-.64.95h-.27l.78-1.15-.76-1.13h.26l.63.94.63-.94h.26l-.76,1.13.77,1.15h-.26Z"/>
    <path class="cls-1" d="m108.41,51c-.23.23-.51.34-.84.34-.38,0-.69-.15-.94-.46v1.49h-.23v-3.35h.23v.43c.24-.31.55-.46.94-.46.33,0,.61.11.83.34s.34.51.34.84-.11.61-.34.83Zm-.17-1.51c-.19-.19-.41-.28-.67-.28s-.49.09-.67.28c-.19.19-.28.41-.28.68s.09.49.28.67.41.28.67.28.49-.09.67-.28c.19-.19.28-.41.28-.68s-.09-.49-.28-.67Z"/>
    <path class="cls-1" d="m109.31,51.3v-4.08h.22v4.08h-.22Z"/>
    <path class="cls-1" d="m112.15,51c-.23.23-.51.34-.84.34s-.61-.11-.83-.34c-.23-.23-.34-.51-.34-.84s.11-.6.34-.83c.22-.23.5-.35.83-.35s.6.11.83.34.34.51.34.84-.11.61-.34.83Zm-.16-1.51c-.18-.19-.41-.28-.68-.28s-.48.1-.67.29c-.19.19-.29.42-.29.67s.09.49.28.67.41.28.67.28.49-.09.67-.28c.19-.19.28-.41.28-.68s-.09-.49-.28-.68Z"/>
    <path class="cls-1" d="m114.13,49.36c-.06-.04-.12-.08-.19-.11-.07-.03-.14-.04-.21-.04-.06,0-.12.02-.18.06s-.1.09-.14.14c-.04.06-.07.12-.1.19-.02.07-.04.13-.04.19v1.5h-.23v-2.28h.23v.31c.05-.08.11-.16.19-.23.08-.07.16-.1.25-.1.11,0,.21.01.28.04.07.03.16.07.25.14l-.12.19Z"/>
    <path class="cls-1" d="m114.48,50.11c0,.31.08.55.25.73.17.18.41.28.71.28.15,0,.29-.03.42-.08.16-.07.3-.2.42-.4l.2.09c-.14.27-.36.46-.66.55-.11.04-.24.06-.39.06-.34,0-.62-.11-.84-.34-.22-.22-.34-.51-.34-.84s.11-.62.33-.84.51-.34.85-.34.62.11.84.31c.22.21.34.48.34.82h-2.13Zm1.56-.72c-.17-.12-.37-.19-.6-.19-.47,0-.78.23-.93.69h1.85c-.04-.21-.15-.38-.33-.51Z"/>
    <path class="cls-1" d="m120.46,51.3v-.39c-.24.29-.54.43-.91.43-.33,0-.61-.11-.83-.34-.23-.23-.34-.51-.34-.84s.11-.61.34-.83c.23-.23.51-.34.84-.34.36,0,.67.14.91.43v-.4h.23v2.28h-.23Zm-.24-1.81c-.19-.19-.41-.28-.67-.28s-.49.09-.67.28c-.19.19-.28.41-.28.68s.09.49.28.67.41.28.67.28.49-.09.67-.28c.19-.19.28-.41.28-.68s-.09-.49-.28-.67Z"/>
    <path class="cls-1" d="m124.7,51c-.23.23-.51.34-.84.34-.38,0-.69-.15-.93-.46v.42h-.23v-4.08h.23v2.23c.24-.31.55-.46.93-.46.33,0,.61.11.83.34s.34.51.34.84-.11.61-.34.83Zm-.17-1.51c-.19-.19-.41-.28-.67-.28s-.49.09-.67.28c-.19.19-.28.41-.28.68s.09.49.28.67.41.28.67.28.49-.09.67-.28c.19-.19.28-.41.28-.68s-.09-.49-.28-.67Z"/>
    <path class="cls-1" d="m127.53,51.3v-.39c-.24.29-.54.43-.91.43-.33,0-.61-.11-.83-.34-.23-.23-.34-.51-.34-.84s.11-.61.34-.83c.23-.23.51-.34.84-.34.36,0,.67.14.91.43v-.4h.23v2.28h-.23Zm-.24-1.81c-.19-.19-.41-.28-.67-.28s-.49.09-.67.28c-.19.19-.28.41-.28.68s.09.49.28.67.41.28.67.28.49-.09.67-.28c.19-.19.28-.41.28-.68s-.09-.49-.28-.67Z"/>
    <path class="cls-1" d="m129.96,51.3v-1.36c0-.48-.22-.72-.65-.72-.21,0-.37.06-.49.19-.11.13-.17.3-.17.51v1.38h-.23v-2.28h.23v.28c.1-.2.32-.3.66-.3.28,0,.5.08.65.24.15.16.23.39.23.68v1.38h-.23Z"/>
    <path class="cls-1" d="m132.2,51.3v-1.36c0-.48-.22-.72-.65-.72-.21,0-.37.06-.49.19-.11.13-.17.3-.17.51v1.38h-.23v-2.28h.23v.28c.1-.2.32-.3.66-.3.28,0,.5.08.65.24.15.16.23.39.23.68v1.38h-.23Z"/>
    <path class="cls-1" d="m133.2,50.11c0,.31.08.55.25.73.17.18.41.28.71.28.15,0,.29-.03.42-.08.16-.07.3-.2.42-.4l.2.09c-.14.27-.36.46-.66.55-.11.04-.24.06-.39.06-.34,0-.62-.11-.84-.34-.22-.22-.34-.51-.34-.84s.11-.62.33-.84.51-.34.85-.34.62.11.84.31c.22.21.34.48.34.82h-2.13Zm1.56-.72c-.17-.12-.37-.19-.6-.19-.47,0-.78.23-.93.69h1.85c-.04-.21-.15-.38-.33-.51Z"/>
    <path class="cls-1" d="m137.83,51.3v-.41c-.24.3-.55.45-.93.45-.33,0-.61-.11-.83-.34-.23-.23-.34-.51-.34-.84s.11-.61.34-.83.51-.34.84-.34c.36,0,.67.15.93.45v-2.22h.23v4.08h-.23Zm-.25-1.81c-.19-.19-.41-.28-.67-.28s-.49.09-.67.28-.28.41-.28.68.09.49.28.67c.19.19.41.28.67.28s.49-.09.67-.28.28-.41.28-.68-.09-.49-.28-.67Z"/>
    <path class="cls-1" d="m142.39,51.4l-.71-1.82-.72,1.82-1.02-2.38h.24l.77,1.76.73-1.84.73,1.83.76-1.76h.25l-1.03,2.38Z"/>
    <path class="cls-1" d="m145.5,51c-.23.23-.51.34-.84.34s-.61-.11-.83-.34c-.23-.23-.34-.51-.34-.84s.11-.6.34-.83c.22-.23.5-.35.83-.35s.6.11.83.34.34.51.34.84-.11.61-.34.83Zm-.16-1.51c-.18-.19-.41-.28-.68-.28s-.48.1-.67.29c-.19.19-.29.42-.29.67s.09.49.28.67.41.28.67.28.49-.09.67-.28c.19-.19.28-.41.28-.68s-.09-.49-.28-.68Z"/>
    <path class="cls-1" d="m147.48,49.36c-.06-.04-.12-.08-.19-.11-.07-.03-.14-.04-.21-.04-.06,0-.12.02-.18.06s-.1.09-.14.14c-.04.06-.07.12-.1.19-.02.07-.04.13-.04.19v1.5h-.23v-2.28h.23v.31c.05-.08.11-.16.19-.23.08-.07.16-.1.25-.1.11,0,.21.01.28.04.07.03.16.07.25.14l-.12.19Z"/>
    <path class="cls-1" d="m148.17,51.3v-4.08h.22v4.08h-.22Z"/>
    <path class="cls-1" d="m151.02,51.3v-.41c-.24.3-.55.45-.93.45-.33,0-.61-.11-.83-.34-.23-.23-.34-.51-.34-.84s.11-.61.34-.83.51-.34.84-.34c.36,0,.67.15.93.45v-2.22h.23v4.08h-.23Zm-.25-1.81c-.19-.19-.41-.28-.67-.28s-.49.09-.67.28-.28.41-.28.68.09.49.28.67c.19.19.41.28.67.28s.49-.09.67-.28.28-.41.28-.68-.09-.49-.28-.67Z"/>
  </g>
  <rect class="cls-1" x="151.72" y="49.71" width="2.9" height=".23"/>
</svg>